<svg class="navbar-logo" xmlns="http://www.w3.org/2000/svg" width="143" height="24"><path fill="#2EC44D" fill-rule="evenodd" d="M37.3 3.597c.646 0 1.16.38 1.402.89l.064.125c.218.47.207 1.046-.13 1.532l-11.31 16.388c-.871 1.307-2.514.779-2.704-.433-.155-.987-1.296-9.063-1.36-9.51l6.207-8.992zM24.915.5c.748 0 1.34.439 1.622 1.03a1.783 1.783 0 01-.075 1.918l-13.09 18.964c-1.007 1.513-2.909.901-3.128-.5-.18-1.143-1.5-10.491-1.573-11.007-.399-.366-7.326-6.75-8.164-7.545C-.522 2.383.055.47 1.872.5zm84.886 1.547c2.673 0 4.993.945 6.895 2.81.46.445.87.928 1.222 1.434a.582.582 0 01-.178.828l-1.767 1.068a.58.58 0 01-.787-.179 6.48 6.48 0 00-.805-.994c-1.202-1.25-2.742-1.884-4.58-1.884-1.821 0-3.361.633-4.577 1.882-1.202 1.25-1.811 2.839-1.811 4.72 0 1.883.61 3.473 1.813 4.725 1.213 1.246 2.753 1.878 4.575 1.878 1.864 0 3.36-.614 4.575-1.878a6.175 6.175 0 001.602-2.807h-5.857c-.32 0-.58-.26-.58-.58V11.2c0-.32.26-.58.58-.58h8.834c.315 0 .576.256.58.572 0 0 .006.371.006.54 0 2.712-.957 5.034-2.842 6.902-1.906 1.848-4.235 2.785-6.925 2.785-2.673 0-4.984-.936-6.868-2.783-1.87-1.87-2.818-4.192-2.818-6.903 0-2.73.948-5.044 2.818-6.876 1.902-1.865 4.222-2.81 6.895-2.81zm-61.958.294c.244 0 .463.154.546.383l4.342 11.998 4.804-11.988a.625.625 0 01.583-.394h.92c.257 0 .486.155.582.394l4.804 11.988 4.342-11.998a.583.583 0 01.546-.383h2.27a.58.58 0 01.544.783L65.45 21.041a.583.583 0 01-.544.378h-.748a.578.578 0 01-.54-.366l-5.04-12.64-5.042 12.64a.577.577 0 01-.539.366h-.748a.584.584 0 01-.544-.377L45.003 3.125a.58.58 0 01.544-.784zm29.248 0c.32 0 .581.26.581.58v17.624c0 .32-.26.58-.58.58h-2.083c-.32 0-.581-.26-.581-.58V2.92c0-.32.26-.58.58-.58zm48.246 0c.32 0 .58.26.58.58v17.624c0 .32-.26.58-.58.58h-2.084c-.32 0-.58-.26-.58-.58V2.92c0-.32.26-.58.58-.58zm16.41 0c.32 0 .58.26.58.58v1.87c0 .32-.26.58-.58.58h-8.589v4.596h5.685c.32 0 .58.26.58.58v1.87c0 .32-.26.58-.58.58h-5.685v5.098h8.59c.32 0 .58.26.58.58v1.87c0 .32-.26.58-.58.58h-11.253c-.32 0-.58-.26-.58-.58V2.92c0-.32.26-.58.58-.58zm-45.71 0c.32 0 .58.26.58.58v17.576a.629.629 0 01-.628.628h-.923a.624.624 0 01-.481-.226L84.655 8.91v11.634c0 .32-.26.58-.581.58H81.99c-.32 0-.58-.26-.58-.58V2.968c0-.345.28-.626.624-.626h.922c.19 0 .369.084.49.231l9.926 12.006V2.92c0-.32.26-.58.58-.58z"></path></svg>